<svg width="20" height="21" viewBox="0 0 20 21" fill="none" xmlns="http://www.w3.org/2000/svg">
<path d="M19.8623 19.1837L14.8235 14.2224C14.7337 14.134 14.6165 14.0878 14.4915 14.0878H14.0892C15.4289 12.661 16.2492 10.7572 16.2492 8.66117C16.2492 4.24215 12.6127 0.66156 8.1246 0.66156C3.63654 0.66156 0 4.24215 0 8.66117C0 13.0802 3.63654 16.6608 8.1246 16.6608C10.2534 16.6608 12.1869 15.8531 13.6361 14.5378V14.9301C13.6361 15.0532 13.6868 15.1685 13.7728 15.257L18.8116 20.2183C18.9952 20.3991 19.292 20.3991 19.4756 20.2183L19.8623 19.8375C20.0459 19.6568 20.0459 19.3645 19.8623 19.1837ZM8.1246 15.4301C4.32401 15.4301 1.24994 12.4033 1.24994 8.66117C1.24994 4.91904 4.32401 1.89227 8.1246 1.89227C11.9252 1.89227 14.9993 4.91904 14.9993 8.66117C14.9993 12.4033 11.9252 15.4301 8.1246 15.4301Z" fill="white"/>
</svg>
