<svg width="17" height="21" viewBox="0 0 17 21" fill="none" xmlns="http://www.w3.org/2000/svg">
<path d="M13.3571 5.58464C13.3571 2.87006 11.1782 0.66156 8.5 0.66156C5.82174 0.66156 3.64286 2.87006 3.64286 5.58464H0V17.2769C0 18.9763 1.35913 20.3539 3.03571 20.3539H13.9643C15.6409 20.3539 17 18.9763 17 17.2769V5.58464H13.3571ZM8.5 1.89233C10.5087 1.89233 12.1429 3.54868 12.1429 5.58464H4.85714C4.85714 3.54868 6.49131 1.89233 8.5 1.89233ZM15.7857 17.2769C15.7857 18.2949 14.9686 19.1231 13.9643 19.1231H3.03571C2.03139 19.1231 1.21429 18.2949 1.21429 17.2769V6.81541H3.64286V8.66156C3.64286 9.00144 3.91471 9.27695 4.25 9.27695C4.58529 9.27695 4.85714 9.00144 4.85714 8.66156V6.81541H12.1429V8.66156C12.1429 9.00144 12.4147 9.27695 12.75 9.27695C13.0853 9.27695 13.3571 9.00144 13.3571 8.66156V6.81541H15.7857V17.2769Z" fill="white"/>
</svg>
